# xmcd
#
# Track frame offsets:
#	150
#	20903
#	38180
#	57364
#	76863
#	95826
#	115102
#	132718
#	150316
#	169258
#	191751
#	207746
#	227134
#	241844
#	255757
#	275389
#	291847
#	311585
#	314607
#	333262
#
# Disc length: 4630 seconds
#
# Revision: 1
# Processed by: cddbd v1.5.2PL0 Copyright (c) Steve Scherf et al.
# Submitted via: audiograbber 1.83.01
#
DISCID=23121414
DTITLE=Nashville Session Players - Gonna Rise Up
DYEAR=2006
DGENRE=Alt-Country
TTITLE0=Told You So
TTITLE1=Gonna Rise Up
TTITLE2=Capitol Offense
TTITLE3=Gone With the Wind
TTITLE4=It Don't Rock Like Elvis
TTITLE5=No Peace on Earth Tonight
TTITLE6=Tennessee Waltz 'Em
TTITLE7=What We Overcome
TTITLE8=Down Home Comfort
TTITLE9=Montgomery
TTITLE10=Local Man
TTITLE11=Feel Like Jesse James
TTITLE12=All We Can Do is Pray
TTITLE13=Big Bang
TTITLE14=Liberty Mountain
TTITLE15=Duck About You
TTITLE16=Pete's Song
TTITLE17=Hard Times
TTITLE18=Amazing Grace Revisited
TTITLE19=Where the Tracks Used to Be
EXTD=
EXTT0=
EXTT1=
EXTT2=
EXTT3=
EXTT4=
EXTT5=
EXTT6=
EXTT7=
EXTT8=
EXTT9=
EXTT10=
EXTT11=
EXTT12=
EXTT13=
EXTT14=
EXTT15=
EXTT16=
EXTT17=
EXTT18=
EXTT19=
PLAYORDER=
